<svg xmlns="http://www.w3.org/2000/svg" version="1.1" xmlns:xlink="http://www.w3.org/1999/xlink" width="2000" height="88" viewBox="0 0 2000 88"><svg xml:space="preserve" width="2000" height="88" data-version="2" data-id="lg_F0Gr6oLal6zgpiTX8x" viewBox="0 0 558 88" x="0" y="0"><rect width="100%" height="100%" fill="transparent"></rect><path fill="#4a5d5e" d="m70.155 85.9 8.06-2.87-10.07-10.49q5.19-3.07 8.9-7.15 3.71-4.09 6.04-8.54 2.34-4.45 3.4-8.95 1.06-4.51 1.06-8.54 0-6.04-2.39-12.77-2.38-6.73-7.42-12.4-5.03-5.67-12.82-9.38-7.8-3.71-18.71-3.71-10.82 0-18.5 3.71-7.69 3.71-12.61 9.32-4.93 5.62-7.27 12.41-2.33 6.78-2.33 12.82 0 7.85 2.97 14.84 2.97 7 8.37 12.25 5.41 5.24 12.88 8.32 7.48 3.07 16.49 3.07 3.6 0 7.1-.48 3.5-.47 6.89-1.64Zm-14.63-26.61-6.67 4.35 7.52 7.73q-2.75 1.06-5.51 1.44-2.76.37-5.62.37-5.83 0-11.13-2.28-5.3-2.28-9.33-6.68-4.02-4.4-6.41-10.65-2.38-6.26-2.38-14.21 0-7.52 2.38-13.72 2.39-6.21 6.47-10.6 4.08-4.4 9.59-6.84 5.51-2.44 11.77-2.44 6.46 0 12.08 2.44t9.75 6.84q4.14 4.39 6.52 10.6 2.39 6.2 2.39 13.72 0 2.02-.27 5.25-.26 3.23-1.54 7.1-1.27 3.87-3.97 8-2.7 4.14-7.58 7.95Z"></path><rect width="82.05" height="84.8" x="-41.02" y="-42.4" fill="none" rx="0" ry="0" transform="translate(47.02 44)"></rect><path fill="#4a5d5e" d="M101.855 2.37v45.58q0 4.34.84 9.59.85 5.25 4.03 9.75 3.18 4.51 9.44 7.53 6.25 3.02 17.06 3.02 6.79 0 12.03-2.12 5.25-2.12 8.8-5.83 3.55-3.71 5.35-8.64 1.81-4.93 1.81-10.55V2.37h-4.67v44.84q0 2.33-.1 4.71-.11 2.39-.64 4.77-.53 2.39-1.64 4.72-1.12 2.33-3.24 4.66-3.81 4.14-8.58 5.62-4.77 1.49-9.97 1.49-4.45 0-7.89-1.38-3.45-1.38-6.52-4.14-2.44-2.12-3.71-4.24t-1.91-4.18q-.64-2.07-.74-4.19-.11-2.12-.11-4.24V2.37Z"></path><rect width="59.36" height="75.47" x="-29.68" y="-37.73" fill="none" rx="0" ry="0" transform="translate(132.03 40.6)"></rect><path fill="#4a5d5e" d="M174.995 39.47q0 5.93 2.28 12.67 2.27 6.73 7.15 12.45 4.88 5.72 12.4 9.49 7.53 3.76 18.02 3.76 7.1 0 12.88-1.75 5.78-1.75 10.39-4.72 4.61-2.96 8-6.83 3.39-3.87 5.57-8.16 2.17-4.3 3.28-8.64 1.12-4.35 1.12-8.27 0-5.94-2.44-12.67-2.44-6.73-7.53-12.45-5.09-5.73-12.88-9.49-7.79-3.76-18.39-3.76-10.49 0-18.02 3.71-7.52 3.71-12.4 9.38-4.88 5.67-7.15 12.45-2.28 6.79-2.28 12.83m10.38 0q0-7.42 2.28-13.62 2.28-6.2 6.26-10.66 3.97-4.45 9.38-6.94 5.4-2.49 11.76-2.49 6.26 0 11.82 2.49 5.57 2.49 9.76 6.94 4.18 4.46 6.62 10.66 2.44 6.2 2.44 13.62 0 7.42-2.44 13.62-2.44 6.2-6.62 10.65-4.19 4.45-9.76 6.95-5.56 2.49-11.82 2.49-6.36 0-11.76-2.49-5.41-2.5-9.38-6.95-3.98-4.45-6.26-10.65t-2.28-13.62"></path><rect width="81.09" height="76.74" x="-40.55" y="-38.37" fill="none" rx="0" ry="0" transform="translate(216.04 39.97)"></rect><path fill="#4a5d5e" d="M294.135 76.57V8.2h28.41V2.37h-66.46V8.2h28.4v68.37Z"></path><rect width="66.46" height="74.2" x="-33.23" y="-37.1" fill="none" rx="0" ry="0" transform="translate(289.81 39.97)"></rect><path fill="#4a5d5e" d="M333.145 2.37v45.58q0 4.34.85 9.59.84 5.25 4.02 9.75 3.18 4.51 9.44 7.53 6.25 3.02 17.06 3.02 6.79 0 12.04-2.12 5.24-2.12 8.79-5.83 3.55-3.71 5.36-8.64 1.8-4.93 1.8-10.55V2.37h-4.67v44.84q0 2.33-.1 4.71-.11 2.39-.64 4.77-.53 2.39-1.64 4.72-1.11 2.33-3.23 4.66-3.82 4.14-8.59 5.62-4.77 1.49-9.96 1.49-4.46 0-7.9-1.38-3.45-1.38-6.52-4.14-2.44-2.12-3.71-4.24t-1.91-4.18q-.63-2.07-.74-4.19-.11-2.12-.11-4.24V2.37Z"></path><rect width="59.36" height="75.47" x="-29.68" y="-37.73" fill="none" rx="0" ry="0" transform="translate(363.32 40.6)"></rect><path fill="#4a5d5e" d="M413.705 2.37v74.2h9.64V43.81h4.67q2.97 0 4.93.53 1.96.53 3.55 1.81 1.59 1.27 2.97 3.28 1.37 2.02 3.28 4.98l8.38 12.41q1.59 2.43 3.12 4.45 1.54 2.01 3.34 3.44 1.8 1.43 4.08 2.28 2.28.85 5.46.85 2.33 0 3.82-.21 1.48-.21 2.97-1.06v-3.92q-.53.1-1.06.16-.53.05-1.06.05-2.23 0-3.93-.64-1.69-.63-3.18-1.85-1.48-1.22-2.86-2.97-1.38-1.75-2.86-3.98-4.45-6.46-6.89-10.33-2.44-3.87-3.87-5.99-1.43-2.12-2.33-3.07-.9-.96-2.17-1.59l-1.06-.53v-.43q5.08-.32 8.74-2.22 3.66-1.91 5.99-4.77 2.33-2.87 3.39-6.2 1.06-3.34 1.06-6.52 0-2.87-1.11-6.26-1.11-3.39-3.82-6.3-2.7-2.92-7.36-4.88-4.67-1.96-11.77-1.96Zm9.64 4.66h10.71q4.03 0 7.26 1.17 3.23 1.16 5.57 3.23 2.33 2.07 3.55 4.93 1.22 2.86 1.22 6.25 0 2.87-1.12 5.78-1.11 2.92-3.34 5.3-2.22 2.39-5.45 3.87-3.24 1.48-7.48 1.48h-10.92Z"></path><rect width="60.21" height="75.47" x="-30.11" y="-37.73" fill="none" rx="0" ry="0" transform="translate(444.31 40.6)"></rect><path fill="#4a5d5e" d="m531.045 54.73 10.18 21.84h10.28l-34.56-74.2h-5.3l-31.37 74.2h4.87l9.33-21.84Zm-2.23-4.77h-32.33l15.27-35.72h.42Z"></path><rect width="71.23" height="74.2" x="-35.62" y="-37.1" fill="none" rx="0" ry="0" transform="translate(516.39 39.97)"></rect></svg></svg>